<svg width="30" height="30" viewBox="0 0 29 30" fill="none" xmlns="http://www.w3.org/2000/svg"><g clip-path="url(#clip0_111_259)"><path d="M8.00192 6.74367C8.7168 7.46671 9.42462 8.18528 10.1368 8.89937C10.5133 9.277 10.7042 9.71459 10.6087 10.2587C10.5062 10.8385 10.067 11.2922 9.49354 11.3906C9.33183 11.4184 9.16482 11.4291 9.00046 11.4291C6.5642 11.4318 4.12707 11.4318 1.69081 11.43C0.621581 11.43 0.0737108 10.8815 0.0737108 9.81123C0.0719435 7.32085 0.0719435 4.83136 0.0754781 2.34098C0.0754781 2.14143 0.0790128 1.93382 0.132032 1.74501C0.43071 0.690871 1.68021 0.375883 2.48699 1.16246C3.24164 1.89803 3.97331 2.65776 4.71117 3.41033C4.79511 3.49624 4.85609 3.60631 4.90645 3.67611C5.715 3.10877 6.43431 2.55664 7.19779 2.077C9.54479 0.601386 12.0986 -0.118077 14.8697 0.0161512C21.2498 0.323086 26.6816 4.70698 28.4428 10.9674C30.811 19.3853 25.3871 28.1978 16.8809 29.754C9.54656 31.0936 2.48787 26.8734 0.111708 19.728C-0.214363 18.7464 0.18947 18.0332 1.19419 17.8139C1.56003 17.7343 1.92498 17.6502 2.2917 17.5723C3.16829 17.3862 3.86462 17.7566 4.18981 18.6121C4.56006 19.5857 5.00189 20.5217 5.63724 21.3441C8.37571 24.8868 11.9731 26.3884 16.3128 25.4783C20.6639 24.5647 23.4527 21.7495 24.4849 17.362C25.8581 11.5249 22.1255 5.72711 16.3287 4.49848C13.242 3.84434 10.5327 4.66939 8.10884 6.63092C8.07526 6.65776 8.04964 6.69356 8.0028 6.74456L8.00192 6.74367Z" fill="white"/></g><defs><clipPath id="clip0_111_259"><rect width="29" height="30" fill="white"/></clipPath></defs></svg>